# xmcd CD database file
#
# Track frame offsets:
#	150
#	55921
#	84571
#	102056
#	137379
#	190332
#	267780
#
# Disc length: 3917 seconds
#
# Revision: 0
# Processed by: cddbd v1.5.2PL0 Copyright (c) Steve Scherf et al.
# Submitted via: CDex 1.51
#
DISCID=540f4b07
DTITLE=The Platypus Ensemble - Life&Play
DYEAR=2007
DGENRE=Jazz
TTITLE0=Jade Jar
TTITLE1=Petals
TTITLE2=Ambiance I
TTITLE3=Ambiance II
TTITLE4=Canción De Concuelo
TTITLE5=Tango Mórbido Y Cínico
TTITLE6=Lullaby For Iiris
EXTD=YEAR: 2007
EXTT0=
EXTT1=
EXTT2=
EXTT3=
EXTT4=
EXTT5=
EXTT6=
PLAYORDER=
